<svg width="30" height="34" viewBox="39.579 23.695 22.487 26.439">
  <g fill="#fff" fill-rule="evenodd">
    <path d="m56.15423513 39.37388443-.08731807.05514826-5.03534216-9.54064829-3.18634368 6.45081406c-.191487-.55607825-.29259213-1.13973063-.30025161-1.7279787h-.13787064l2.95655928-5.98971335-1.12287977-2.12780355.01838275-.02910602-.02604223.01378706c-.62194978-1.28679264.31250678-2.78039124 1.74176575-2.78345503 1.46908827.0030638 2.40048103 1.57632099 1.69887267 2.86617742l-1.00798757 2.04354926 5.33865756 10.11510929c-.26042232.24357146-.54688687.4626326-.85020228.6541196m-5.17934038-14.5208422c-.5729291 0-.94977552.60050324-.70007647 1.1167522l.72305491 1.36798312.65565149-1.32815383c.28799645-.51778085-.08578618-1.15504959-.67862993-1.15658148m-6.84451133 18.79483202-1.15964527-.99113671c-.09497755-.09344566-.1884232-.1884232-.28033697-.28493266l5.65729193-4.8653017c.61735409 1.02483843 1.54415117 1.82755194 2.64711629 2.29171642v6.0509892c-.05821205.0015319-.1148922.00612759-.17310425.00612759-2.4096724.00306379-4.75653708-.77207559-6.69132173-2.20899403v.0015319Z"/>
    <path d="m42.97073815 42.65673756 1.15964527.98960482v2.23197247a.9972643.9972643 0 0 1 .35386798 1.16424096l1.40934432 3.09136613h-.63726874l-1.1060289-2.42958706.36765503 2.42958706h-.58518427l-.37225073-2.44337412-.01072327.0015319h-.01072327l-.37071883 2.44184222h-.58671617l.36918693-2.42958706-1.1075608 2.42958706h-.63726874l1.40934432-3.09289803a.9957324.9957324 0 0 1 .35386798-1.16424096v-3.22004539zm14.94824117.67403424 1.15964527-1.030966v3.57850905a.9957324.9957324 0 0 1 .35386798 1.16424096l1.40934432 3.09136613h-.63726874l-1.10602891-2.42958706.36765504 2.42958706h-.58671617l-.37071883-2.44184223h-.02144654l-.36918694 2.44031033h-.58671617l.36918694-2.42958706-1.10756081 2.42958706h-.63726874l1.40934432-3.09136613a.9972643.9972643 0 0 1 .35539988-1.16424096V43.3307718zm-6.92416992-3.53255218 1.15964527.3431447v5.6312497l-1.15964527.0765948v-6.0509892zm-3.15264197-3.38549016.50552568 1.09377375-5.65729193 4.8653017-.75675662-.87930831 5.90852287-5.07976714zm8.3120677 2.96115497.9191376-.71999112 2.72677488 2.72524299-.72152302.9191376-2.92592136-2.92592136z"/>
    <path d="m59.0786246 42.2998058-2.92592137-2.92592137-.08578617.05514826c-1.17343234.70773595-2.5643939.96203069-3.91246239.71233164v5.6312497c2.11554838-.24816716 4.11467266-1.09530565 5.76452465-2.44184223l1.15964527-1.030966Zm-11.67304753-7.68858603h-7.82645666c0 2.59349993.8808402 4.978662 2.35605605 6.88127683l5.90852287-5.07976714c-.0030638-.01225516-.00765948-.02604223-.01225517-.0382974l.01685086-.0352336c-.191487-.55607825-.29412404-1.13973063-.30178352-1.7279787h-.14093443Zm14.66024472 0h-3.27672554c0 1.58704425-.65871528 3.01936701-1.71572352 4.04114165l2.72677488 2.72677488c1.47368395-1.94857172 2.26873797-4.3260743 2.26414229-6.76791653h.0015319Z"/>
  </g>
</svg>